<?xml version="1.0" encoding="utf-8"?>
<!-- Generator: Adobe Illustrator 18.1.1, SVG Export Plug-In . SVG Version: 6.00 Build 0)  -->
<svg version="1.1" id="Layer_1" xmlns="http://www.w3.org/2000/svg" xmlns:xlink="http://www.w3.org/1999/xlink" x="0px" y="0px"
	 viewBox="0 0 60 60" enable-background="new 0 0 60 60" xml:space="preserve">
<path fill="#B5ACBC" d="M30,0C13.4,0,0,13.4,0,30s13.4,30,30,30c16.6,0,30-13.4,30-30S46.6,0,30,0z M44.1,37.4
	c-1.3,1.5-2.1,2.4-3.3,3.6c-1.1,1.1-2.5,2.4-3.5,3.2L30,36.8l-7.4,7.4c-0.9-0.7-2.4-2.1-3.5-3.2c-1.1-1.1-2-2.1-3.3-3.6l7.4-7.4
	l-7.4-7.4c0.8-0.9,2.1-2.4,3.2-3.5c1.1-1.1,2.1-2,3.6-3.3l7.4,7.4l7.4-7.4c1.5,1.3,2.4,2.1,3.6,3.3c1.1,1.1,2.4,2.5,3.2,3.5L36.7,30
	L44.1,37.4z"/>
</svg>
