<?xml version="1.0" encoding="utf-8"?>
<!-- Generator: Adobe Illustrator 18.1.1, SVG Export Plug-In . SVG Version: 6.00 Build 0)  -->
<svg version="1.1" id="Layer_1" xmlns="http://www.w3.org/2000/svg" xmlns:xlink="http://www.w3.org/1999/xlink" x="0px" y="0px"
	 viewBox="0 0 60 60" enable-background="new 0 0 60 60" xml:space="preserve">
<path fill="#B5ACBC" d="M60,30c0,16.6-13.4,30-30,30S0,46.6,0,30S13.4,0,30,0S60,13.4,60,30z M39.6,22.7h-6.6v-4.3
	c0-1.6,1.1-2,1.8-2s4.6,0,4.6,0V9.2l-6.4,0c-7.1,0-8.7,5.3-8.7,8.7v4.8h-4.1V30h4.1c0,9.4,0,20.7,0,20.7h8.6c0,0,0-11.4,0-20.7h5.8
	L39.6,22.7z"/>
</svg>
