<?xml version="1.0" encoding="utf-8"?>
<!-- Generator: Adobe Illustrator 18.1.1, SVG Export Plug-In . SVG Version: 6.00 Build 0)  -->
<svg version="1.1" id="Layer_1" xmlns="http://www.w3.org/2000/svg" xmlns:xlink="http://www.w3.org/1999/xlink" x="0px" y="0px"
	 viewBox="0 0 60 60" enable-background="new 0 0 60 60" xml:space="preserve">
<path fill="#B5ACBC" d="M30,0C13.4,0,0,13.4,0,30s13.4,30,30,30c16.6,0,30-13.4,30-30S46.6,0,30,0z M34.6,32
	c-0.3,2.7-1.3,5.3-3.1,7.2c-4.6,5-13.3,4.9-18.3-0.1c-5-5-5-13.5,0.1-18.5c3.8-3.7,9.2-4.6,13.8-2.7l1.9,0.9l2,1.4l-3.4,3.4
	l-1.2-0.8c-3-1.8-7-1.4-9.7,1.2c-3.2,3.2-3.2,8.7-0.1,11.9s8.6,3.3,11.6,0c0.8-0.9,1.6-2,1.8-3.2l0.1-0.4h-7.4v-4.1h11.9l0.1,1
	L34.6,32z M50.5,31.9h-3.7v3.7h-3.6v-3.7h-3.8v-3.7h3.8v-3.7h3.6v3.7h3.7V31.9z"/>
</svg>
