<?xml version="1.0" encoding="utf-8"?>
<!-- Generator: Adobe Illustrator 18.1.1, SVG Export Plug-In . SVG Version: 6.00 Build 0)  -->
<svg version="1.1" id="Layer_1" xmlns="http://www.w3.org/2000/svg" xmlns:xlink="http://www.w3.org/1999/xlink" x="0px" y="0px"
	 viewBox="0 0 283.5 283.5" enable-background="new 0 0 283.5 283.5" xml:space="preserve">
<g>
	<path fill="#B5ACBC" d="M283.5,141.7c0,78.4-63.3,141.7-141.7,141.7S0,220.2,0,141.7S63.3,0,141.7,0S283.5,63.3,283.5,141.7z"/>
</g>
<g>
	<g>
		<path fill="#F3E4FF" d="M238.3,126.9c0,38-40.2,69-91,71.1c-1.8,0.1-3.7,0.1-5.6,0.1c-18.5,0-35.8-3.8-50.5-10.4
			c-27.7-12.5-46.2-35-46.2-60.8c0-8.2,1.9-16.1,5.3-23.4c4-8.5,10.1-16.3,18-23c17.7-15.2,44-24.8,73.3-24.8
			C195.1,55.7,238.3,87.5,238.3,126.9z"/>
	</g>
	<g>
		<path fill="#F3E4FF" d="M153.2,124.6c5.7,16.8,2.7,35-7,51.5c-11.8,20.1-33.6,37.7-61.3,47.2c-5.5,1.9-10.9,3.3-16.3,4.4
			c12-13,19.6-28.1,21.3-43.2C59.5,181.6,140.4,87.3,153.2,124.6z"/>
	</g>
</g>
</svg>
