<?xml version="1.0" encoding="utf-8"?>
<!-- Generator: Adobe Illustrator 18.1.1, SVG Export Plug-In . SVG Version: 6.00 Build 0)  -->
<svg version="1.1" id="Layer_1" xmlns="http://www.w3.org/2000/svg" xmlns:xlink="http://www.w3.org/1999/xlink" x="0px" y="0px"
	 viewBox="0 0 60 60" enable-background="new 0 0 60 60" xml:space="preserve">
<path fill="#B5ACBC" d="M30,0C13.4,0,0,13.4,0,30s13.4,30,30,30c16.6,0,30-13.4,30-30S46.6,0,30,0z M9.5,42.3c0-8.2,0-16.3,0-24.4
	c0.5-1.5,1.7-1.9,3.2-1.9c11.6,0,23.2,0,34.8,0c2.1,0,3,0.8,3,3c0,7.4,0,14.7,0,22c0,1.6-0.5,2.6-2,3.2c-12.3,0-24.7,0-37,0
	C10.6,43.8,9.9,43.2,9.5,42.3z M22.8,30.2c-3.8,3.8-7.6,7.7-11.4,11.5c-0.2,0.2-0.2,0.5-0.4,0.8c0.3-0.1,0.6-0.1,0.8-0.3
	c3.2-2.6,6.4-5.2,9.6-7.9c1.4-1.1,2.8-2.3,4.1-3.4c0.9,0.7,1.7,1.4,2.5,2c1.3,1,2.8,1,4.1,0c0.8-0.7,1.6-1.3,2.4-2
	c0.3,0.2,0.5,0.4,0.7,0.5c4.2,3.5,8.5,7,12.7,10.5c0.3,0.2,0.7,0.3,1,0.5c-0.2-0.4-0.3-0.8-0.6-1.1c-4-4-8.1-7.9-12.2-11.9
	c0.5-0.4,0.8-0.6,1-0.8c3.8-3.5,7.6-6.9,11.3-10.4c0.2-0.1,0.3-0.3,0.5-0.4c0.1-0.1,0.1-0.4,0-0.5c-0.1-0.1-0.3-0.1-0.5-0.1
	c-0.2,0.1-0.3,0.2-0.5,0.4c-5.1,4.1-10.2,8.2-15.4,12.3c-1.8,1.4-3.4,1.4-5.2,0c-5.1-4.1-10.3-8.2-15.5-12.4
	c-0.2-0.2-0.6-0.2-0.9-0.2c0.1,0.3,0.2,0.6,0.4,0.8c2.1,2,4.3,3.9,6.5,5.9c1.9,1.7,3.8,3.5,5.9,5.3C23.4,29.8,23.1,30,22.8,30.2z"/>
</svg>
