<?xml version="1.0" encoding="utf-8"?>
<!-- Generator: Adobe Illustrator 18.1.1, SVG Export Plug-In . SVG Version: 6.00 Build 0)  -->
<svg version="1.1" id="Layer_1" xmlns="http://www.w3.org/2000/svg" xmlns:xlink="http://www.w3.org/1999/xlink" x="0px" y="0px"
	 viewBox="0 0 60 60" enable-background="new 0 0 60 60" xml:space="preserve">
<path fill="#B5ACBC" d="M30,0C13.4,0,0,13.4,0,30s13.4,30,30,30c16.6,0,30-13.4,30-30S46.6,0,30,0z M33.1,39.9
	c-2.5,0-4.9-1.3-5.7-2.8c0,0-1.3,5.3-1.6,6.4c-1,3.6-3.9,7.2-4.2,7.5c-0.1,0.2-0.5,0.1-0.5-0.2c-0.1-0.5-0.8-5.1,0.1-8.8
	c0.4-1.9,3-12.6,3-12.6s-0.7-1.4-0.7-3.6c0-3.4,1.9-6,4.4-6c2.1,0,3.1,1.6,3.1,3.5c0,2.1-1.3,5.3-2,8.2c-0.7,2.4,1.2,4.4,3.6,4.4
	c4.5,0,7.4-5.6,7.4-12.3c0-5.1-3.4-8.9-9.6-8.9c-7,0-11.4,5.2-11.4,11.1c0,2,0.6,3.4,1.5,4.5c0.5,0.5,0.6,0.7,0.4,1.3
	c0,0.5-0.3,1.5-0.4,1.9c-0.2,0.6-0.7,0.8-1.2,0.6c-3.2-1.3-4.7-4.9-4.9-8.8c0-6.6,5.5-14.5,16.5-14.5c8.9,0,14.7,6.4,14.7,13.2
	C45.6,33.2,40.6,39.9,33.1,39.9z"/>
</svg>
