<?xml version="1.0" encoding="utf-8"?>
<!-- Generator: Adobe Illustrator 18.1.1, SVG Export Plug-In . SVG Version: 6.00 Build 0)  -->
<svg version="1.1" id="Layer_1" xmlns="http://www.w3.org/2000/svg" xmlns:xlink="http://www.w3.org/1999/xlink" x="0px" y="0px"
	 viewBox="0 0 60 60" enable-background="new 0 0 60 60" xml:space="preserve">
<path fill="#B5ACBC" d="M60,30c0,16.6-13.4,30-30,30S0,46.6,0,30S13.4,0,30,0S60,13.4,60,30z M39.5,36.9c-2.1,0-4,0.9-5.3,2.4
	l-12.4-6.9c0.2-0.7,0.3-1.4,0.3-2.1c0-0.8-0.1-1.5-0.4-2.2l12.5-7.3c1.3,1.4,3.2,2.3,5.3,2.3c4,0,7.2-3.2,7.2-7.2s-3.2-7.2-7.2-7.2
	S32.4,12,32.4,16c0,0.8,0.1,1.5,0.4,2.2l-12.5,7.3c-1.3-1.4-3.2-2.3-5.3-2.3c-4,0-7.2,3.2-7.2,7.2c0,4,3.2,7.2,7.2,7.2
	c2.2,0,4.1-1,5.4-2.5l12.4,6.8c-0.2,0.7-0.4,1.4-0.4,2.2c0,4,3.2,7.2,7.2,7.2s7.2-3.2,7.2-7.2S43.5,36.9,39.5,36.9z"/>
</svg>
