<?xml version="1.0" encoding="utf-8"?>
<!-- Generator: Adobe Illustrator 18.1.1, SVG Export Plug-In . SVG Version: 6.00 Build 0)  -->
<svg version="1.1" id="Layer_1" xmlns="http://www.w3.org/2000/svg" xmlns:xlink="http://www.w3.org/1999/xlink" x="0px" y="0px"
	 viewBox="0 0 283.5 283.5" enable-background="new 0 0 283.5 283.5" xml:space="preserve">
<path fill="#B5ACBC" d="M283.5,141.7c0,78.4-63.3,141.7-141.7,141.7S0,220.2,0,141.7S63.3,0,141.7,0S283.5,63.3,283.5,141.7z"/>
<path fill="#F3E4FF" d="M186.6,174.3c-9.9,0-18.9,4.3-25,11.3L103,153.1c0.9-3.3,1.4-6.6,1.4-9.9c0-3.8-0.5-7.1-1.9-10.4l59.1-34.5
	c6.1,6.6,15.1,10.9,25,10.9c18.9,0,34-15.1,34-34s-15.1-34-34-34s-33.5,15.6-33.5,34.5c0,3.8,0.5,7.1,1.9,10.4l-59.1,34.5
	c-6.1-6.6-15.1-10.9-25-10.9c-18.9,0-34,15.1-34,34s15.1,34,34,34c10.4,0,19.4-4.7,25.5-11.8l58.6,32.1c-0.9,3.3-1.9,6.6-1.9,10.4
	c0,18.9,15.1,34,34,34s34-15.1,34-34S205.5,174.3,186.6,174.3z"/>
</svg>
