<?xml version="1.0" encoding="utf-8"?>
<!-- Generator: Adobe Illustrator 18.1.1, SVG Export Plug-In . SVG Version: 6.00 Build 0)  -->
<svg version="1.1" id="Layer_1" xmlns="http://www.w3.org/2000/svg" xmlns:xlink="http://www.w3.org/1999/xlink" x="0px" y="0px"
	 viewBox="0 0 283.5 283.5" enable-background="new 0 0 283.5 283.5" xml:space="preserve">
<g>
	<path fill="#B5ACBC" d="M141.8,285.4c-38.5,0-74.6-14.9-101.7-42C12.9,216.3-2,180.2-2,141.7C-2,103.2,12.9,67.1,40,40
		C67.1,12.9,103.2-2,141.7-2c38.5,0,74.6,14.9,101.7,42c27.1,27.1,42.1,63.2,42.1,101.7c0,38.4-14.9,74.5-42,101.6
		S180.2,285.4,141.8,285.4z"/>
	<path fill="#F3E4FF" d="M141.7,0c78.4,0,141.8,63.3,141.8,141.7s-63.3,141.7-141.7,141.7S0,220.2,0,141.7S63.3,0,141.7,0 M141.7-4
		c-39,0-75.6,15.1-103.1,42.6C11.1,66-4,102.7-4,141.7c0,39,15.2,75.6,42.7,103.1c27.5,27.5,64.1,42.6,103.1,42.6
		c39,0,75.6-15.1,103.1-42.6c27.5-27.5,42.6-64.1,42.6-103.1c0-39-15.2-75.6-42.7-103.1C217.3,11.1,180.7-4,141.7-4L141.7-4z"/>
</g>
<path fill="#F3E4FF" d="M186.6,174.3c-9.9,0-18.9,4.3-25,11.3L103,153.1c0.9-3.3,1.4-6.6,1.4-9.9c0-3.8-0.5-7.1-1.9-10.4l59.1-34.5
	c6.1,6.6,15.1,10.9,25,10.9c18.9,0,34-15.1,34-34s-15.1-34-34-34s-33.5,15.6-33.5,34.5c0,3.8,0.5,7.1,1.9,10.4l-59.1,34.5
	c-6.1-6.6-15.1-10.9-25-10.9c-18.9,0-34,15.1-34,34s15.1,34,34,34c10.4,0,19.4-4.7,25.5-11.8L155,198c-0.9,3.3-1.9,6.6-1.9,10.4
	c0,18.9,15.1,34,34,34s34-15.1,34-34S205.5,174.3,186.6,174.3z"/>
</svg>
