<?xml version="1.0" encoding="utf-8"?>
<!-- Generator: Adobe Illustrator 18.1.1, SVG Export Plug-In . SVG Version: 6.00 Build 0)  -->
<svg version="1.1" id="Layer_1" xmlns="http://www.w3.org/2000/svg" xmlns:xlink="http://www.w3.org/1999/xlink" x="0px" y="0px"
	 viewBox="0 0 60 60" enable-background="new 0 0 60 60" xml:space="preserve">
<path fill="#B5ACBC" d="M30,0C13.4,0,0,13.4,0,30s13.4,30,30,30c16.6,0,30-13.4,30-30S46.6,0,30,0z M36,15.7
	c0.9-0.7,2.1-1.2,3.2-1.4c-0.1,0.6-0.6,1-1.1,1.3c0.9-0.3,1.9-0.7,2.9-0.5c0.4,0.2,0.3,0.8-0.1,1c-1,0.6-2.3,0.7-3.4,1.2
	c2.8-0.1,5.4,1.3,7.2,3.4c1.3,1.5,2.1,3.4,2.5,5.3c1.8,0.5,3.7,0.1,5.4-0.6c-0.8,1.9-2.9,2.8-4.8,3c1.6,0.5,3.3,0.7,5,0.5
	c-1.3,1.5-3.4,2.1-5.4,2.1c-0.5,1.2-0.8,2.5-1.4,3.6c-2.5,4.9-7.3,8.2-12.4,9.9c-5,1.6-10.5,1.8-15.5,0.1c-4.3-1.4-8.2-4.2-10.8-8
	c2.2,2.1,5.3,3.3,8.4,3.3c3.2,0,6.2-1.4,8.5-3.6c-1,0-2.1-0.1-2.8-0.9c-0.5-0.5-0.5-1.3-0.1-1.9c0.3-0.5,0.8-0.8,1.3-1.1
	c-2.2,0.2-4.4-0.8-5.4-2.8c0.8-0.8,1.8-1.1,2.8-1.3c-1.4-0.4-2.8-1-3.8-2.2c-0.5-0.7-0.9-1.5-0.9-2.3c0.9-0.1,1.7-0.3,2.6-0.4
	c-2.1-1-3.9-3.2-3.8-5.7c3.8,1.4,7.4,2.9,11,4.8c1.6,0.8,2.9,1.9,4.1,3.1c1.1-2.6,2.1-5.2,3.7-7.5c1-1.4,2.1-2.7,3.6-3.6
	C36.2,15,36.1,15.3,36,15.7z"/>
</svg>
